Coordinates
version=1
nRows=4
nColumns=107
inDegrees=yes

Units are S.I. units (second, meters, Newtons, ...)
If the header above contains a line with 'inDegrees', this indicates whether rotational values are in degrees (yes) or radians (no).

endheader
time	sternoclavicular_r2	sternoclavicular_r3	unrotscap_r3	unrotscap_r2	acromioclavicular_r2	acromioclavicular_r3	acromioclavicular_r1	unrothum_r1	unrothum_r3	unrothum_r2	elv_angle	shoulder_elv	shoulder1_r2	shoulder_rot	elbow_flexion	pro_sup	deviation	flexion	proximal_distal_r1	proximal_distal_r3	cmc_flexion	cmc_abduction	mp_flexion	ip_flexion	mcp2_flexion	mcp2_abduction	pm2_flexion	md2_flexion	mcp3_flexion	mcp3_abduction	pm3_flexion	md3_flexion	mcp4_flexion	mcp4_abduction	pm4_flexion	md4_flexion	mcp5_flexion	mcp5_abduction	pm5_flexion	md5_flexion	bicpt_tx	bicpt_ty	bicpt_tz	bicpt2_tx	bicpt2_ty	bicpt2_tz	ptpt_tx	ptpt_ty	ptpt_tz	FCUpt_tx	FCUpt_ty	FCUpt_tz	EDCpt_tx	EDCpt_ty	EDCpt_tz	APLpt_tx	APLpt_ty	APLpt_tz	FPLpt_tx	FPLpt_ty	FPLpt_tz	FPLpt2_tx	FPLpt2_ty	FPLpt2_tz	PEC1pt2_tx	PEC1pt2_ty	PEC1pt2_tz	PEC1pt3_tx	PEC1pt3_ty	PEC1pt3_tz	PEC2pt2_tx	PEC2pt2_ty	PEC2pt2_tz	PEC2pt3_tx	PEC2pt3_ty	PEC2pt3_tz	PEC3pt2_tx	PEC3pt2_ty	PEC3pt2_tz	PEC3pt3_tx	PEC3pt3_ty	PEC3pt3_tz	DELT2pt2a_tx	DELT2pt2a_ty	DELT2pt2a_tz	DELT2pt2_tx	DELT2pt2_ty	DELT2pt2_tz	LAT1pt2_tx	LAT1pt2_ty	LAT1pt2_tz	LAT1pt3_tx	LAT1pt3_ty	LAT1pt3_tz	LAT2pt2_tx	LAT2pt2_ty	LAT2pt2_tz	LAT2pt3_tx	LAT2pt3_ty	LAT2pt3_tz	LAT3pt2_tx	LAT3pt2_ty	LAT3pt2_tz	LAT3pt3_tx	LAT3pt3_ty	LAT3pt3_tz
      0.00000000	     -0.32699632	      0.13850021	     -0.13850021	      0.32699632	     -0.06621010	      0.53508677	      0.24051782	     -0.24051782	     -0.53508677	      0.06621010	     98.50476574	     77.41928558	     -1.71923249	    -18.18193159	     27.23170222	     19.68140356	     -0.04163201	     -0.33062232	     -0.05791905	     -0.16531116	     21.27290446	      2.64799694	     13.12397786	     14.44083505	      3.30928110	     14.20194249	      4.23555150	    -39.29454183	    -21.88358242	      0.96396096	      5.14718174	      8.66465794	    -34.96086256	     -6.50464639	     -9.86679222	     17.17889737	    -48.45617109	    -14.42281468	     -7.97984617	      5.00946920	      0.00080074	     -0.03072117	     -0.00480274	      0.01606421	     -0.01759763	     -0.00934965	      0.00609577	     -0.06584033	     -0.00163544	      0.00579830	     -0.18385913	     -0.00008673	     -0.00236176	      0.00061742	      0.00018041	      0.00024674	      0.00009870	      0.00049348	      0.00031583	      0.00094748	      0.00053296	      0.00000872	     -0.00028042	     -0.00033651	      0.00253763	      0.00890323	      0.00619355	     -0.00830107	      0.02004301	     -0.01901075	      0.00253763	      0.00890323	      0.00619355	      0.00055914	      0.01858064	     -0.00976344	      0.00399506	      0.00495097	      0.01608167	      0.00000000	      0.00801769	      0.00000000	     -0.00726882	     -0.03359140	     -0.00661226	      0.01270503	     -0.00037677	     -0.00269352	     -0.00090323	      0.01513978	     -0.00619355	      0.00249462	      0.02184946	     -0.01806452	     -0.00606452	      0.01311828	     -0.00554839	     -0.01264516	      0.02769892	     -0.03101075	     -0.02374193	      0.01466667	     -0.00744086	     -0.01574193	      0.03200000	     -0.03875269
      0.03333333	     -0.32335365	      0.13695735	     -0.13695735	      0.32335365	     -0.06547254	      0.52912601	      0.23783850	     -0.23783850	     -0.52912601	      0.06547254	     99.29566370	     76.55685106	     -1.73303626	    -22.58015553	     27.29043264	     22.83186705	     -0.05959542	     -0.32188958	     -0.08378616	     -0.16094479	     20.29002511	      3.60403271	     12.96092093	     14.30164223	      4.72294974	     14.19439258	      4.24235778	    -40.76174548	    -21.26547842	      1.72379987	      4.97412304	      8.54978990	    -35.16403833	     -6.36241474	    -10.39357795	     17.35176480	    -49.12125828	    -14.41973206	     -7.74726310	      5.01915052	      0.00080268	     -0.03072790	     -0.00480382	      0.01620518	     -0.01761358	     -0.00909612	      0.00586298	     -0.06599085	     -0.00188923	      0.00609726	     -0.18381036	     -0.00015356	     -0.00273982	      0.00072735	      0.00018980	      0.00024257	      0.00009703	      0.00048514	      0.00031049	      0.00093147	      0.00052395	      0.00001111	     -0.00027854	     -0.00033425	      0.00250937	      0.00880405	      0.00612455	     -0.00820860	      0.01981973	     -0.01879898	      0.00250937	      0.00880405	      0.00612455	      0.00055291	      0.01837366	     -0.00965468	      0.00396267	      0.00489582	      0.01600354	      0.00000000	      0.00783878	      0.00000000	     -0.00718784	     -0.03321720	     -0.00646377	      0.01522062	     -0.00051247	     -0.00424541	     -0.00089316	      0.01497113	     -0.00612455	      0.00246683	      0.02160606	     -0.01786328	     -0.00599696	      0.01297214	     -0.00548658	     -0.01250430	      0.02739036	     -0.03066530	     -0.02347745	      0.01450328	     -0.00735797	     -0.01556657	      0.03164353	     -0.03832099
      0.06666667	     -0.32511790	      0.13770460	     -0.13770460	      0.32511790	     -0.06582976	      0.53201298	      0.23913617	     -0.23913617	     -0.53201298	      0.06582976	     98.98858572	     76.97455389	     -1.72767674	    -20.64185190	     27.06833818	     21.15886254	     -0.05428261	     -0.30184413	     -0.07608093	     -0.15092206	     20.64659088	      3.06035615	     12.91543201	     11.72701879	      3.99025788	     14.19072329	      4.24363677	    -42.39737847	    -22.08454746	      2.07771681	      5.08245321	     10.70658377	    -35.86981763	     -6.70624517	    -11.38503152	     20.15059822	    -49.64454633	    -14.44288747	     -7.75888903	      5.01607889	      0.00079534	     -0.03070245	     -0.00479972	      0.01613316	     -0.01755325	     -0.00923250	      0.00598660	     -0.06591092	     -0.00175446	      0.00593812	     -0.18383661	     -0.00011901	     -0.00253906	      0.00066859	      0.00018549	      0.00023253	      0.00009301	      0.00046506	      0.00029764	      0.00089292	      0.00050227	      0.00001024	     -0.00027934	     -0.00033521	      0.00252306	      0.00885208	      0.00615797	     -0.00825339	      0.01992787	     -0.01890155	      0.00252306	      0.00885208	      0.00615797	      0.00055593	      0.01847391	     -0.00970735	      0.00397839	      0.00492253	      0.01604160	      0.00000000	      0.00792517	      0.00000000	     -0.00722706	     -0.03339843	     -0.00653547	      0.01414388	     -0.00045173	     -0.00352424	     -0.00089804	      0.01505281	     -0.00615797	      0.00248029	      0.02172395	     -0.01796074	     -0.00602968	      0.01304292	     -0.00551651	     -0.01257252	      0.02753981	     -0.03083261	     -0.02360555	      0.01458241	     -0.00739812	     -0.01565151	      0.03181618	     -0.03853007
      0.10000000	     -0.32562488	      0.13791933	     -0.13791933	      0.32562488	     -0.06593241	      0.53284258	      0.23950907	     -0.23950907	     -0.53284258	      0.06593241	     98.87705194	     77.09458503	     -1.72573011	    -19.89356376	     26.99375502	     19.81378918	     -0.05017691	     -0.29970078	     -0.07015788	     -0.14985039	     19.68512877	      3.46348426	     13.76516842	     12.31813310	      4.81651016	     14.17506666	      4.55802508	    -43.50260751	    -21.39681796	      2.57410372	      4.93333604	      9.93943365	    -35.81362758	     -6.56994523	    -11.86608216	     20.38007992	    -50.00155406	    -14.45105166	     -7.62442338	      4.97696023	      0.00079287	     -0.03069390	     -0.00479835	      0.01607061	     -0.01753299	     -0.00933929	      0.00608598	     -0.06584666	     -0.00164611	      0.00581079	     -0.18385714	     -0.00008970	     -0.00237765	      0.00062197	      0.00018092	      0.00023142	      0.00009257	      0.00046284	      0.00029622	      0.00088865	      0.00049987	      0.00001260	     -0.00027686	     -0.00033223	      0.00252699	      0.00886588	      0.00616757	     -0.00826626	      0.01995895	     -0.01893102	      0.00252699	      0.00886588	      0.00616757	      0.00055679	      0.01850272	     -0.00972249	      0.00398290	      0.00493021	      0.01605246	      0.00000000	      0.00795009	      0.00000000	     -0.00723833	     -0.03345051	     -0.00655615	      0.01371476	     -0.00042867	     -0.00326133	     -0.00089944	      0.01507629	     -0.00616757	      0.00248416	      0.02175782	     -0.01798875	     -0.00603908	      0.01306326	     -0.00552512	     -0.01259213	      0.02758275	     -0.03088069	     -0.02364236	      0.01460515	     -0.00740965	     -0.01567591	      0.03186579	     -0.03859016
